<svg viewBox="0 0 24 24" fill="none" xmlns="http://www.w3.org/2000/svg">
<path d="M1.5 0H22.5C23.3284 0 24 0.671573 24 1.5V22.5C24 23.3284 23.3284 24 22.5 24H1.5C0.671573 24 0 23.3284 0 22.5V1.5C0 0.671573 0.671573 0 1.5 0Z" fill="#1572B6"/>
<path d="M4 4H20V20H4V4Z" fill="#1572B6"/>
<path d="M6 6H18V18H6V6Z" fill="#1572B6"/>
<path d="M8 8H16V16H8V8Z" fill="#1572B6"/>
<path d="M10 10H14V14H10V10Z" fill="#1572B6"/>
<path d="M12 12H12V12H12V12Z" fill="#1572B6"/>
<text x="12" y="14" text-anchor="middle" fill="white" font-family="Arial, sans-serif" font-size="8" font-weight="bold">3</text>
</svg>
