<svg viewBox="0 0 24 24" fill="none" xmlns="http://www.w3.org/2000/svg">
<path d="M12 10.11C13.03 10.11 13.87 10.95 13.87 12C13.87 13.05 13.03 13.89 12 13.89C10.97 13.89 10.13 13.05 10.13 12C10.13 10.95 10.97 10.11 12 10.11Z" fill="#61DAFB"/>
<path fill-rule="evenodd" clip-rule="evenodd" d="M12 5.83C15.17 5.83 18.69 6.59 21.5 8.12C21.34 8.7 21.13 9.26 20.89 9.81C18.46 8.54 15.42 7.87 12 7.87C8.58 7.87 5.54 8.54 3.11 9.81C2.87 9.26 2.66 8.7 2.5 8.12C5.31 6.59 8.83 5.83 12 5.83Z" fill="#61DAFB"/>
<path fill-rule="evenodd" clip-rule="evenodd" d="M12 18.17C8.83 18.17 5.31 17.41 2.5 15.88C2.66 15.3 2.87 14.74 3.11 14.19C5.54 15.46 8.58 16.13 12 16.13C15.42 16.13 18.46 15.46 20.89 14.19C21.13 14.74 21.34 15.3 21.5 15.88C18.69 17.41 15.17 18.17 12 18.17Z" fill="#61DAFB"/>
<path fill-rule="evenodd" clip-rule="evenodd" d="M6.04 7C6.04 4.79 8.04 3.5 10.13 4.6C11.05 5.13 11.72 6.28 12.04 7.64C12.36 6.28 13.03 5.13 13.95 4.6C16.04 3.5 18.04 4.79 18.04 7C18.04 8.9 16.54 11.34 14.89 13.81C13.95 15.13 12.95 16.13 12 16.13C11.05 16.13 10.05 15.13 9.11 13.81C7.46 11.34 6.04 8.9 6.04 7Z" fill="#61DAFB"/>
</svg>
