<svg viewBox="0 0 24 24" fill="none" xmlns="http://www.w3.org/2000/svg">
<path d="M1.125 0C.502 0 0 .502 0 1.125V22.875C0 23.498.502 24 1.125 24H22.875C23.498 24 24 23.498 24 22.875V1.125C24 .502 23.498 0 22.875 0H1.125ZM13.061 6.013L13.063 6.011L13.061 6.013ZM9.563 9.75H7.5V19.5H9.563V9.75ZM18.844 9.75H16.313V11.25H18.844V9.75ZM18.844 12.75H16.313V14.25H18.844V12.75ZM18.844 15.75H16.313V17.25H18.844V15.75ZM18.844 18.75H16.313V19.5H18.844V18.75Z" fill="#3178C6"/>
<path d="M2.344 2.344V21.656H21.656V2.344H2.344ZM9.563 9.75H7.5V19.5H9.563V9.75ZM18.844 9.75H16.313V11.25H18.844V9.75ZM18.844 12.75H16.313V14.25H18.844V12.75ZM18.844 15.75H16.313V17.25H18.844V15.75ZM18.844 18.75H16.313V19.5H18.844V18.75Z" fill="#3178C6"/>
</svg>
